<svg width="37" height="37" viewBox="0 0 37 37" fill="none" xmlns="http://www.w3.org/2000/svg">
<g clip-path="url(#clip0_1689_1816)">
<path d="M18.5 36C28.165 36 36 28.165 36 18.5C36 8.83502 28.165 1 18.5 1C8.83502 1 1 8.83502 1 18.5C1 28.165 8.83502 36 18.5 36Z" stroke="#FD524E" stroke-width="2"/>
<path d="M19.6327 18.3384L25.4088 12.5715C25.5814 12.3989 25.6784 12.1647 25.6784 11.9206C25.6784 11.6764 25.5814 11.4423 25.4088 11.2696C25.2362 11.097 25.002 11 24.7578 11C24.5137 11 24.2795 11.097 24.1069 11.2696L18.34 17.0457L12.5731 11.2696C12.4005 11.097 12.1663 11 11.9222 11C11.678 11 11.4438 11.097 11.2712 11.2696C11.0986 11.4423 11.0016 11.6764 11.0016 11.9206C11.0016 12.1647 11.0986 12.3989 11.2712 12.5715L17.0473 18.3384L11.2712 24.1053C11.1853 24.1906 11.1171 24.292 11.0705 24.4037C11.024 24.5154 11 24.6352 11 24.7563C11 24.8773 11.024 24.9972 11.0705 25.1089C11.1171 25.2206 11.1853 25.322 11.2712 25.4072C11.3564 25.4932 11.4578 25.5614 11.5696 25.6079C11.6813 25.6545 11.8011 25.6784 11.9222 25.6784C12.0432 25.6784 12.163 25.6545 12.2747 25.6079C12.3865 25.5614 12.4879 25.4932 12.5731 25.4072L18.34 19.6312L24.1069 25.4072C24.1921 25.4932 24.2935 25.5614 24.4053 25.6079C24.517 25.6545 24.6368 25.6784 24.7578 25.6784C24.8789 25.6784 24.9987 25.6545 25.1104 25.6079C25.2222 25.5614 25.3236 25.4932 25.4088 25.4072C25.4947 25.322 25.5629 25.2206 25.6095 25.1089C25.656 24.9972 25.68 24.8773 25.68 24.7563C25.68 24.6352 25.656 24.5154 25.6095 24.4037C25.5629 24.292 25.4947 24.1906 25.4088 24.1053L19.6327 18.3384Z" fill="#FD524E"/>
</g>
<defs>
<clipPath id="clip0_1689_1816">
<rect width="37" height="37" fill="white"/>
</clipPath>
</defs>
</svg>
