<svg width="45" height="45" viewBox="0 0 45 45" fill="none" xmlns="http://www.w3.org/2000/svg">
<path d="M22.5 5.625C19.1624 5.625 15.8998 6.6147 13.1248 8.46895C10.3497 10.3232 8.18677 12.9587 6.90954 16.0422C5.63231 19.1257 5.29813 22.5187 5.94926 25.7921C6.60038 29.0656 8.20757 32.0724 10.5676 34.4324C12.9276 36.7924 15.9344 38.3996 19.2079 39.0507C22.4813 39.7019 25.8743 39.3677 28.9578 38.0905C32.0413 36.8132 34.6768 34.6503 36.5311 31.8752C38.3853 29.1002 39.375 25.8376 39.375 22.5C39.375 18.0245 37.5971 13.7322 34.4324 10.5676C31.2678 7.4029 26.9755 5.625 22.5 5.625ZM22.5 36.5625C19.7187 36.5625 16.9999 35.7377 14.6873 34.1925C12.3747 32.6473 10.5723 30.4511 9.50795 27.8815C8.44359 25.3119 8.16511 22.4844 8.70771 19.7565C9.25032 17.0287 10.5896 14.523 12.5563 12.5563C14.523 10.5896 17.0287 9.25031 19.7566 8.70771C22.4844 8.1651 25.3119 8.44359 27.8815 9.50794C30.4511 10.5723 32.6473 12.3747 34.1925 14.6873C35.7378 16.9999 36.5625 19.7187 36.5625 22.5C36.5625 26.2296 35.0809 29.8065 32.4437 32.4437C29.8065 35.0809 26.2296 36.5625 22.5 36.5625Z" fill="#03A9F4"/>
<path d="M22.5 19.2657C22.127 19.2657 21.7694 19.4138 21.5056 19.6775C21.2419 19.9413 21.0937 20.2989 21.0937 20.6719V30.2344C21.0937 30.6074 21.2419 30.9651 21.5056 31.2288C21.7694 31.4925 22.127 31.6407 22.5 31.6407C22.873 31.6407 23.2306 31.4925 23.4944 31.2288C23.7581 30.9651 23.9062 30.6074 23.9062 30.2344V20.6719C23.9062 20.2989 23.7581 19.9413 23.4944 19.6775C23.2306 19.4138 22.873 19.2657 22.5 19.2657ZM22.5 13.5C22.1193 13.5143 21.7585 13.6739 21.4918 13.9459C21.225 14.2178 21.0725 14.5816 21.0656 14.9625V15.1875C21.065 15.371 21.1025 15.5526 21.1758 15.7208C21.2492 15.889 21.3568 16.04 21.4917 16.1644C21.6266 16.2887 21.7859 16.3836 21.9595 16.443C22.1331 16.5024 22.3172 16.525 22.5 16.5094C22.8685 16.4955 23.2182 16.3429 23.4789 16.0821C23.7397 15.8213 23.8923 15.4717 23.9062 15.1032V14.7657C23.9074 14.5869 23.8706 14.41 23.7984 14.2465C23.7262 14.083 23.6202 13.9366 23.4873 13.8171C23.3545 13.6975 23.1978 13.6074 23.0276 13.5528C22.8574 13.4981 22.6776 13.4802 22.5 13.5Z" fill="#03A9F4"/>
</svg>
