<svg width="37" height="37" viewBox="0 0 37 37" fill="none" xmlns="http://www.w3.org/2000/svg">
<circle cx="18.5" cy="18.5" r="17.5" fill="white" stroke="#008000" stroke-width="2"/>
<path d="M28.136 11.0004C27.918 11.0068 27.7111 11.0972 27.5591 11.2525L14.7256 23.9896L9.44466 18.7483C9.36733 18.6684 9.27471 18.6046 9.17223 18.5606C9.06974 18.5167 8.95944 18.4934 8.8478 18.4923C8.73615 18.4912 8.62541 18.5122 8.52204 18.5541C8.41867 18.5959 8.32476 18.6579 8.24581 18.7362C8.16686 18.8146 8.10446 18.9078 8.06226 19.0104C8.02006 19.113 7.99891 19.2229 8.00004 19.3337C8.00118 19.4445 8.02458 19.554 8.06888 19.6557C8.11317 19.7574 8.17747 19.8493 8.25801 19.9261L14.1322 25.7562C14.2896 25.9123 14.503 26 14.7256 26C14.9481 26 15.1615 25.9123 15.3189 25.7562L28.7457 12.4302C28.867 12.3132 28.9498 12.1626 28.9833 11.9981C29.0169 11.8336 28.9995 11.6629 28.9336 11.5083C28.8677 11.3537 28.7563 11.2225 28.614 11.1319C28.4716 11.0413 28.305 10.9954 28.136 11.0004Z" fill="#008000"/>
</svg>
