<svg width="45" height="45" viewBox="0 0 45 45" fill="none" xmlns="http://www.w3.org/2000/svg">
<g clip-path="url(#clip0_352_14)">
<path d="M22.5 18.2812V25.3125" stroke="#FF9800" stroke-width="2" stroke-linecap="round" stroke-linejoin="round"/>
<path d="M20.0659 7.02856L4.60129 33.746C4.35384 34.1735 4.22334 34.6586 4.22293 35.1526C4.22252 35.6465 4.35222 36.1319 4.59896 36.5598C4.84571 36.9877 5.2008 37.3431 5.62851 37.5902C6.05623 37.8373 6.54148 37.9674 7.03544 37.9674H37.9646C38.4585 37.9674 38.9438 37.8373 39.3715 37.5902C39.7992 37.3431 40.1543 36.9877 40.4011 36.5598C40.6478 36.1319 40.7775 35.6465 40.7771 35.1526C40.7767 34.6586 40.6462 34.1735 40.3987 33.746L24.9342 7.02856C24.6871 6.60174 24.3322 6.24738 23.9049 6.00103C23.4777 5.75468 22.9932 5.625 22.5 5.625C22.0068 5.625 21.5223 5.75468 21.0951 6.00103C20.6679 6.24738 20.3129 6.60174 20.0659 7.02856Z" stroke="#FF9800" stroke-width="2" stroke-linecap="round" stroke-linejoin="round"/>
<path d="M22.5 33.3984C23.4708 33.3984 24.2578 32.6114 24.2578 31.6406C24.2578 30.6698 23.4708 29.8828 22.5 29.8828C21.5292 29.8828 20.7422 30.6698 20.7422 31.6406C20.7422 32.6114 21.5292 33.3984 22.5 33.3984Z" fill="#FF9800"/>
</g>
<defs>
<clipPath id="clip0_352_14">
<rect width="45" height="45" fill="white"/>
</clipPath>
</defs>
</svg>
